<?xml version="1.0" encoding="UTF-8"?>
            <svg width="50" height="50" viewBox="0 0 29.64 17.32" version="1.1" id="svg13" xmlns="http://www.w3.org/2000/svg">
              <g id="svgGroup" stroke-linecap="round" fill-rule="nonzero" font-size="19.5px" stroke="#000" stroke-width="0.25mm" fill="hsl(var(--pc))" style="fill:hsl(var(--pc));stroke:hsl(var(--pc));stroke-width:0.25mm" transform="matrix(1,0,0,1.1335039,0,-2.3122959)">
                <path d="M 8.42,14.02 0.36,9.16 A 0.778,0.778 0 0 1 0.174,9.034 0.543,0.543 0 0 1 0,8.62 Q 0,8.3 0.36,8.06 L 8.42,3.2 Q 8.637,3.083 8.896,3.141 A 0.958,0.958 0 0 1 9,3.17 0.457,0.457 0 0 1 9.204,3.304 Q 9.276,3.387 9.303,3.511 A 0.783,0.783 0 0 1 9.32,3.68 0.585,0.585 0 0 1 9.109,4.14 0.858,0.858 0 0 1 9,4.22 L 1,9.02 V 8.16 l 8,4.78 A 0.776,0.776 0 0 1 9.179,13.09 0.578,0.578 0 0 1 9.32,13.48 0.591,0.591 0 0 1 9.284,13.691 0.531,0.531 0 0 1 9.16,13.88 0.724,0.724 0 0 1 8.929,14.038 0.686,0.686 0 0 1 8.79,14.08 0.643,0.643 0 0 1 8.706,14.091 q -0.016,0 -0.032,0 A 0.47,0.47 0 0 1 8.42,14.02 Z" id="0" vector-effect="non-scaling-stroke" />
                <path d="M 11,16.46 17.46,0.38 A 0.576,0.576 0 0 1 17.634,0.138 0.709,0.709 0 0 1 17.67,0.11 Q 17.82,0 18.02,0 a 0.813,0.813 0 0 1 0.192,0.021 q 0.125,0.03 0.21,0.105 A 0.454,0.454 0 0 1 18.54,0.3 q 0.066,0.164 0.066,0.321 A 0.764,0.764 0 0 1 18.56,0.88 l -6.44,16.1 q -0.08,0.2 -0.24,0.27 a 0.832,0.832 0 0 1 -0.21,0.062 0.739,0.739 0 0 1 -0.11,0.008 0.631,0.631 0 0 1 -0.267,-0.055 q -0.131,-0.06 -0.228,-0.186 A 0.784,0.784 0 0 1 11.05,17.06 0.541,0.541 0 0 1 10.941,16.734 q 0,-0.073 0.019,-0.151 A 0.85,0.85 0 0 1 11,16.46 Z" id="1" vector-effect="non-scaling-stroke" />
                <path d="m 29.28,9.16 -8.06,4.86 q -0.16,0.1 -0.37,0.06 a 0.697,0.697 0 0 1 -0.36,-0.19 0.843,0.843 0 0 1 -0.01,-0.01 q -0.16,-0.16 -0.16,-0.4 a 0.585,0.585 0 0 1 0.211,-0.46 0.858,0.858 0 0 1 0.109,-0.08 l 8,-4.78 v 0.86 l -8,-4.8 A 0.776,0.776 0 0 1 20.461,4.07 0.578,0.578 0 0 1 20.32,3.68 0.758,0.758 0 0 1 20.342,3.491 Q 20.404,3.251 20.64,3.17 20.96,3.06 21.22,3.2 l 8.06,4.86 q 0.231,0.154 0.314,0.34 A 0.535,0.535 0 0 1 29.64,8.62 0.557,0.557 0 0 1 29.556,8.927 Q 29.491,9.028 29.377,9.104 A 0.886,0.886 0 0 1 29.28,9.16 Z" id="2" vector-effect="non-scaling-stroke" />
              </g>
            </svg>